<?xml version="1.0" encoding="UTF-8"?>
<svg width="27px" height="19px" viewBox="0 0 27 19" version="1.1" xmlns="http://www.w3.org/2000/svg" xmlns:xlink="http://www.w3.org/1999/xlink">
    <!-- Generator: Sketch 64 (93537) - https://sketch.com -->
    <title>Behance</title>
    <desc>Created with Sketch.</desc>
    <g id="Page-1" stroke="none" stroke-width="1" fill-rule="evenodd">
        <g id="Desktop" transform="translate(-512.000000, -2529.000000)" fill-rule="nonzero">
            <g id="Social" transform="translate(423.000000, 2527.000000)">
                <g id="Behance" transform="translate(88.000000, 1.000000)">
                    <path d="M19.3143017,13.7852279 C19.2796158,14.740851 19.5705892,15.6762878 20.1302233,16.4082959 C20.7121907,16.9858813 21.4819902,17.279715 22.2641721,17.2228275 C22.8816736,17.2419074 23.4885779,17.0435968 23.9964364,16.6567971 C24.4029655,16.3719382 24.7154258,15.9508465 24.8876738,15.455708 L27.7873336,15.455708 C27.4658323,16.8605235 26.7061737,18.0966523 25.6408322,18.9485301 C24.5964679,19.6673854 23.3828316,20.0322891 22.1511983,19.9977573 C21.2928377,19.9996654 20.4415998,19.8264671 19.6406703,19.4869493 C18.9096637,19.1854108 18.2461258,18.7145908 17.6950111,18.1063873 C17.142765,17.4571628 16.7157642,16.6916769 16.4397471,15.856071 C15.8562499,14.0096692 15.8562499,12.0007514 16.4397471,10.1543496 C16.7161236,9.31482527 17.1429846,8.54489537 17.6950111,7.89022775 C18.2401292,7.23680977 18.9026649,6.7149889 19.6406703,6.35780383 C20.4325773,5.98049904 21.2882607,5.79227982 22.1511983,5.80557899 C23.0658425,5.74960901 23.9791412,5.93913022 24.812358,6.35780383 C25.5571082,6.78887084 26.2014363,7.40302873 26.6952539,8.15253455 C27.192207,8.92682132 27.5500952,9.79839071 27.7496757,10.72038 C27.9679262,11.7043677 28.0441728,12.7199732 27.9756232,13.7300054 L19.3143017,13.7300054 L19.3143017,13.7852279 Z M23.9211205,9.31220671 C23.4196106,8.77845566 22.7339897,8.50699465 22.0382245,8.56670318 C21.6041861,8.56099224 21.1747444,8.66489996 20.7829605,8.87042684 C20.4612838,9.05053457 20.1787032,9.30481503 19.9544863,9.61593037 C19.7513699,9.89779576 19.6019515,10.2217666 19.5151439,10.5685182 C19.4390852,10.861687 19.3886459,11.1621717 19.3645122,11.4658836 L24.7495948,11.4658836 C24.6863504,10.6700031 24.396435,9.91634776 23.9211205,9.31220671 Z M18.6364591,2.21611754 L25.3646741,2.21611754 L25.3646741,4.07987637 L18.6364591,4.07987637 L18.6364591,2.21611754 Z M13.1132975,18.368694 C12.5431351,18.8205132 11.8998118,19.1485112 11.2178489,19.3350875 C10.5098498,19.544153 9.77928416,19.6463309 9.0462422,19.6388112 L1,19.6388112 L1,1.0012229 L8.83284732,1.0012229 C9.56245059,0.989050369 10.2909607,1.06778382 11.004454,1.23591846 C11.601992,1.36956542 12.1694609,1.63234964 12.6739551,2.00903323 C13.1357094,2.35952072 13.5075148,2.83500722 13.7534822,3.38959532 C14.0213454,4.07805472 14.1498422,4.8223564 14.1300614,5.57088343 C14.1554114,6.39911817 13.9542686,7.21667219 13.5526399,7.91783899 C13.1235688,8.59055235 12.5383973,9.12448721 11.8580335,9.46406854 C12.7839331,9.72541088 13.594282,10.3424207 14.142614,11.2035768 C14.6593718,12.096782 14.9176105,13.1413819 14.8832198,14.1993965 C14.9021299,15.0454859 14.7341423,15.8839929 14.3936668,16.6429914 C14.1060074,17.3277593 13.6655631,17.9213973 13.1132975,18.368694 Z M10.3893747,5.23954853 C10.2564698,4.97220875 10.0615768,4.74833539 9.82450588,4.59068435 C9.57737459,4.42717746 9.30508551,4.31487678 9.02113692,4.25934944 C8.70496908,4.21212237 8.38620476,4.18905771 8.06713628,4.19032134 L4.66537086,4.19032134 L4.66537086,8.55289756 L8.43116284,8.55289756 C9.00557082,8.58561868 9.57277659,8.40042117 10.0379008,8.02828396 C10.4570131,7.60193424 10.6667298,6.98174149 10.6027696,6.35780383 C10.6149512,5.97155335 10.5417242,5.58782093 10.3893747,5.23954853 L10.3893747,5.23954853 Z M10.5400064,11.8800522 C9.98678794,11.4402698 9.31374685,11.2211249 8.63200508,11.2587993 L4.66537086,11.2587993 L4.66537086,16.4082959 L8.56924188,16.4082959 C8.91553701,16.4102714 9.26089674,16.3685824 9.59855836,16.2840453 C9.89497715,16.2529738 10.1840065,16.1641545 10.4521379,16.0217385 C10.7046056,15.8341523 10.9080098,15.5771265 11.0421119,15.276235 C11.2027102,14.8966286 11.2759923,14.4794206 11.2555068,14.0613403 C11.3658538,13.24816 11.0969782,12.4284606 10.5400064,11.8800522 L10.5400064,11.8800522 Z" id="behance_shape"></path>
                </g>
            </g>
        </g>
    </g>
</svg>
