<?xml version="1.0" encoding="UTF-8"?>
<svg width="22px" height="22px" viewBox="0 0 22 22" version="1.1" xmlns="http://www.w3.org/2000/svg" xmlns:xlink="http://www.w3.org/1999/xlink">
    <!-- Generator: Sketch 64 (93537) - https://sketch.com -->
    <title>Dribbble</title>
    <desc>Created with Sketch.</desc>
    <g id="Page-1" stroke="none" stroke-width="1" fill="none" fill-rule="evenodd">
        <g id="Desktop" transform="translate(-604.000000, -2527.000000)" fill-rule="nonzero">
            <g id="Social" transform="translate(423.000000, 2526.000000)">
                <g id="Dribbble" transform="translate(181.000000, 1.000000)">
                    <path d="M11,22 C4.93625,22 0,17.06375 0,11 C0,4.93625 4.93625,0 11,0 C17.06375,0 22,4.95 22,11 C22,17.05 17.06375,22 11,22 L11,22 Z M20.28125,12.5125 C19.965,12.41625 17.36625,11.6325 14.42375,12.11375 C15.6475,15.55125 16.21125,18.30125 16.21125,18.81 C18.35625,17.325 19.8,15.125 20.35,12.5125 L20.28125,12.5125 Z M14.67125,19.6625 C14.53375,18.8375 13.98375,15.96375 12.66375,12.54 C12.63625,12.54 12.6225,12.55375 12.595,12.55375 C7.30125,14.39625 5.39,18.08125 5.225,18.425 C6.82,19.6625 8.8,20.35 11,20.35 C12.30625,20.35 13.6125,20.075 14.7125,19.6625 L14.67125,19.6625 Z M4.015,17.2975 C4.22125,16.92625 6.80625,12.66375 11.64625,11.09625 C11.77,11.055 11.89375,11.01375 12.0175,10.98625 C11.78375,10.45 11.5225,9.91375 11.26125,9.39125 C6.5725,10.79375 2.02125,10.73875 1.60875,10.725 C1.60875,10.8625 1.60875,10.8625 1.60875,11.01375 C1.60875,13.475 2.475,15.675 3.9875,17.2975 L4.015,17.325 L4.015,17.2975 Z M1.80125,9.08875 C2.2275,9.08875 6.06375,9.08875 10.49125,7.9475 C8.9375,5.18375 7.26,2.86 7.0125,2.51625 C4.3725,3.7125 2.475,6.1875 1.7875,9.08875 L1.80125,9.08875 Z M8.8,1.925 C9.06125,2.2 10.725,4.5375 12.2375,7.425 C15.57875,6.17375 16.995,4.27625 17.16,4.02875 C15.565,2.475 13.3375,1.65 11,1.6225 C10.24375,1.65 9.4875,1.65 8.8,1.925 L8.8,1.88375 L8.8,1.925 Z M18.27375,5.07375 C18.08125,5.335 16.5,7.35625 13.02125,8.7725 C13.24125,9.185 13.43375,9.735 13.70875,10.13375 C13.7775,10.27125 13.84625,10.40875 13.84625,10.54625 C16.9675,10.1475 20.03375,10.82125 20.44625,10.84875 C20.3775,8.6625 19.525,6.6 18.2875,5.07375 L18.27375,5.07375 Z" id="dribbble_shape"></path>
                </g>
            </g>
        </g>
    </g>
</svg>
