<?xml version="1.0" encoding="UTF-8"?>
<svg width="22px" height="22px" viewBox="0 0 22 22" version="1.1" xmlns="http://www.w3.org/2000/svg" xmlns:xlink="http://www.w3.org/1999/xlink">
    <!-- Generator: Sketch 64 (93537) - https://sketch.com -->
    <title>Github</title>
    <desc>Created with Sketch.</desc>
    <g id="Page-1" stroke="none" stroke-width="1" fill="none" fill-rule="evenodd">
        <g id="Desktop" transform="translate(-1048.000000, -2527.000000)" fill-rule="nonzero">
            <g id="Social" transform="translate(423.000000, 2527.000000)">
                <g id="Github" transform="translate(625.000000, 0.000000)">
                    <path d="M10.8674699,0 C4.90361446,0 0,5.04967071 0,11.1911621 C0,16.1043552 3.18072289,20.3351604 7.42168675,21.8364139 C7.95180723,21.9728915 8.21686747,21.5634587 8.21686747,21.2905035 C8.21686747,21.0175484 8.21686747,20.1986829 8.21686747,19.2433397 C5.1686747,19.9257277 4.5060241,17.8785639 4.5060241,17.8785639 C3.97590361,16.6502656 3.31325301,16.2408328 3.31325301,16.2408328 C2.38554217,15.5584449 3.44578313,15.5584449 3.44578313,15.5584449 C4.5060241,15.6949225 5.1686747,16.6502656 5.1686747,16.6502656 C6.09638554,18.4244742 7.68674699,17.8785639 8.34939759,17.6056087 C8.48192771,16.9232208 8.74698795,16.3773104 9.01204819,16.1043552 C6.62650602,15.8314001 4.10843373,14.876057 4.10843373,10.5087742 C4.10843373,9.28047591 4.5060241,8.3251328 5.1686747,7.50626728 C5.03614458,7.2333121 4.63855422,6.14149141 5.30120482,4.50376037 C5.30120482,4.50376037 6.22891566,4.23080519 8.34939759,5.59558106 C9.01204819,5.59558106 9.93975904,5.45910347 10.8674699,5.45910347 C11.7951807,5.45910347 12.7228916,5.59558106 13.6506024,5.86853623 C15.7710843,4.36728278 16.6987952,4.77671554 16.6987952,4.77671554 C17.2289157,6.27796899 16.9638554,7.50626728 16.8313253,7.77922245 C17.4939759,8.59808797 17.8915663,9.55343108 17.8915663,10.7817294 C17.8915663,15.1490121 15.373494,15.9678777 12.9879518,16.2408328 C13.3855422,16.6502656 13.7831325,17.3326535 13.7831325,18.2879966 C13.7831325,19.7892501 13.7831325,21.0175484 13.7831325,21.4269811 C13.7831325,21.6999363 13.9156627,22.1093691 14.5783133,21.9728915 C18.9518072,20.471638 22,16.2408328 22,11.3276397 C21.7349398,5.04967071 16.8313253,0 10.8674699,0 Z" id="Path"></path>
                    <path d="M5.2,16.1 C5.2,16.1 5,16.3 5,16.1 C4.8,16.1 4.8,15.9 4.8,15.9 C4.8,15.9 5,15.7 5,15.9 C5.2,15.9 5.2,15.9 5.2,16.1 L5.2,16.1 Z" id="Path"></path>
                    <path d="M5.125,16.2 C5.125,16.2 4.925,16.2 4.725,16.2 C4.725,16.2 4.725,16 4.725,15.8 C4.725,15.8 4.925,15.8 5.125,15.8 C5.325,16 5.325,16.2 5.125,16.2 L5.125,16.2 Z" id="Path"></path>
                    <path d="M6.275,17.3 C6.075,17.3 6.075,17.3 5.875,17.1 C5.675,16.9 5.675,16.7 5.875,16.7 C6.075,16.7 6.075,16.7 6.275,16.9 C6.275,17.1 6.275,17.3 6.275,17.3 L6.275,17.3 Z" id="Path"></path>
                    <path d="M6.23055556,17.2 C6.23055556,17.2 6.03055556,17.2 5.83055556,17.2 C5.63055556,17 5.63055556,16.8 5.83055556,16.8 C5.83055556,16.8 6.03055556,16.8 6.23055556,16.8 C6.23055556,16.8 6.43055556,17 6.23055556,17.2 L6.23055556,17.2 Z" id="Path"></path>
                    <path d="M6.34142136,18.1 C6.34142136,18.3 6.14142136,18.3 5.94142136,18.3 C5.74142136,18.3 5.54142136,18.1 5.74142136,17.9 C5.74142136,17.7 5.94142136,17.7 6.14142136,17.7 C6.34142136,17.9 6.34142136,18.1 6.34142136,18.1 L6.34142136,18.1 Z" id="Path"></path>
                    <path d="M7.4,18 C7.4,18.2 7.2,18.2 7,18.2 C6.8,18.2 6.6,18 6.6,18 C6.6,17.8 6.8,17.8 7,17.8 C7.2,17.8 7.4,17.8 7.4,18 L7.4,18 Z" id="Path"></path>
                    <path d="M8.4,17.9 C8.4,18.1 8.2,18.1 8,18.3 C7.8,18.3 7.6,18.3 7.6,18.1 C7.6,17.9 7.8,17.9 8,17.7 C8.2,17.7 8.4,17.7 8.4,17.9 L8.4,17.9 Z" id="Path"></path>
                </g>
            </g>
        </g>
    </g>
</svg>
