<?xml version="1.0" encoding="UTF-8"?>
<svg width="21px" height="22px" viewBox="0 0 21 22" version="1.1" xmlns="http://www.w3.org/2000/svg" xmlns:xlink="http://www.w3.org/1999/xlink">
    <!-- Generator: Sketch 64 (93537) - https://sketch.com -->
    <title>IG</title>
    <desc>Created with Sketch.</desc>
    <g id="Page-1" stroke="none" stroke-width="1" fill="none" fill-rule="evenodd">
        <g id="Desktop" transform="translate(-871.000000, -2527.000000)" fill-rule="nonzero">
            <g id="Social" transform="translate(423.000000, 2527.000000)">
                <g id="IG" transform="translate(448.000000, 0.000000)">
                    <path d="M10.6329114,1.93710692 C13.4240506,1.93710692 13.8227848,1.93710692 14.8860759,1.93710692 C15.9493671,1.93710692 16.4810127,2.21383648 16.8797468,2.35220126 C17.4113924,2.49056604 17.6772152,2.7672956 18.0759494,3.18238994 C18.4746835,3.59748428 18.7405063,3.87421384 18.8734177,4.42767296 C19.0063291,4.8427673 19.1392405,5.39622642 19.2721519,6.50314465 C19.2721519,7.61006289 19.2721519,8.02515723 19.2721519,10.9308176 C19.2721519,13.836478 19.2721519,14.2515723 19.2721519,15.3584906 C19.2721519,16.4654088 19.0063291,17.0188679 18.8734177,17.4339623 C18.7405063,17.9874214 18.4746835,18.2641509 18.0759494,18.6792453 C17.6772152,19.0943396 17.4113924,19.3710692 16.8797468,19.509434 C16.4810127,19.6477987 15.9493671,19.7861635 14.8860759,19.9245283 C13.8227848,19.9245283 13.4240506,19.9245283 10.6329114,19.9245283 C7.84177215,19.9245283 7.44303797,19.9245283 6.37974684,19.9245283 C5.3164557,19.9245283 4.78481013,19.6477987 4.38607595,19.509434 C3.85443038,19.3710692 3.58860759,19.0943396 3.18987342,18.6792453 C2.79113924,18.2641509 2.52531646,17.9874214 2.39240506,17.4339623 C2.25949367,17.0188679 2.12658228,16.4654088 1.99367089,15.3584906 C1.99367089,14.2515723 1.99367089,13.836478 1.99367089,10.9308176 C1.99367089,8.02515723 1.99367089,7.61006289 1.99367089,6.50314465 C1.99367089,5.39622642 2.25949367,4.8427673 2.39240506,4.42767296 C2.52531646,3.87421384 2.79113924,3.59748428 3.18987342,3.18238994 C3.58860759,2.7672956 3.85443038,2.49056604 4.38607595,2.35220126 C4.78481013,2.21383648 5.3164557,2.0754717 6.37974684,1.93710692 C7.44303797,1.93710692 7.84177215,1.93710692 10.6329114,1.93710692 M10.6329114,0 C7.70886076,0 7.44303797,0 6.24683544,0 C5.05063291,0 4.38607595,0.27672956 3.72151899,0.553459119 C3.05696203,0.830188679 2.39240506,1.24528302 1.86075949,1.79874214 C1.19620253,2.49056604 0.797468354,3.04402516 0.53164557,3.87421384 C0.265822785,4.56603774 0.132911392,5.39622642 0,6.50314465 C0,7.74842767 0,8.02515723 0,11.0691824 C0,14.1132075 0,14.3899371 0,15.6352201 C0,16.8805031 0.265822785,17.572327 0.53164557,18.2641509 C0.797468354,18.9559748 1.19620253,19.6477987 1.7278481,20.2012579 C2.25949367,20.754717 2.92405063,21.1698113 3.58860759,21.4465409 C4.25316456,21.7232704 5.05063291,21.8616352 6.11392405,22 C7.31012658,22 7.57594937,22 10.5,22 C13.4240506,22 13.6898734,22 14.8860759,22 C16.0822785,22 16.7468354,21.7232704 17.4113924,21.4465409 C18.0759494,21.1698113 18.7405063,20.754717 19.2721519,20.2012579 C19.8037975,19.6477987 20.2025316,18.9559748 20.4683544,18.2641509 C20.7341772,17.572327 20.8670886,16.7421384 21,15.6352201 C21,14.3899371 21,14.1132075 21,11.0691824 C21,8.02515723 21,7.74842767 21,6.50314465 C21,5.25786164 20.7341772,4.56603774 20.4683544,3.87421384 C20.2025316,3.18238994 19.8037975,2.49056604 19.2721519,1.93710692 C18.7405063,1.3836478 18.0759494,0.968553459 17.4113924,0.691823899 C16.7468354,0.41509434 15.9493671,0.27672956 14.8860759,0.13836478 C13.8227848,0 13.556962,0 10.6329114,0 L10.6329114,0 L10.6329114,0 Z" id="Shape"></path>
                    <path d="M11,6 C7.63414634,6 5,8.41463415 5,11.5 C5,14.5853659 7.63414634,17 11,17 C14.3658537,17 17,14.5853659 17,11.5 C17,8.41463415 14.3658537,6 11,6 L11,6 Z M11,15.1219512 C8.80487805,15.1219512 7.04878049,13.5121951 7.04878049,11.5 C7.04878049,9.48780488 8.80487805,7.87804878 11,7.87804878 C13.195122,7.87804878 14.9512195,9.48780488 14.9512195,11.5 C14.9512195,13.5121951 13.195122,15.1219512 11,15.1219512 L11,15.1219512 Z" id="Shape"></path>
                    <path d="M18,5.5 C18,6.25 17.4,7 16.5,7 C15.6,7 15,6.4 15,5.5 C15,4.6 15.6,4 16.5,4 C17.4,4 18,4.75 18,5.5 L18,5.5 Z" id="Path"></path>
                </g>
            </g>
        </g>
    </g>
</svg>
