<?xml version="1.0" encoding="UTF-8"?>
<svg width="25px" height="22px" viewBox="0 0 25 22" version="1.1" xmlns="http://www.w3.org/2000/svg" xmlns:xlink="http://www.w3.org/1999/xlink">
    <!-- Generator: Sketch 64 (93537) - https://sketch.com -->
    <title>Twitter</title>
    <desc>Created with Sketch.</desc>
    <g id="Page-1" stroke="none" stroke-width="1" fill="none" fill-rule="evenodd">
        <g id="Desktop" transform="translate(-693.000000, -2527.000000)" fill-rule="nonzero">
            <g id="Social" transform="translate(423.000000, 2527.000000)">
                <g id="Twitter" transform="translate(269.000000, 0.000000)">
                    <path d="M26,2.59875 C25.0859938,3.025 24.0561277,3.3 23.0262616,3.47875 C24.0818744,2.79125 24.8928939,1.705 25.2790937,0.4125 C24.2878476,1.045 23.1936148,1.5125 22.0221421,1.7875 C21.1210093,0.6875 19.80793,0 18.2631308,0 C15.430999,0 13.1266735,2.48875 13.1266735,5.555 C13.1266735,5.9675 13.1266735,6.38 13.2554068,6.82 C9.04582904,6.6 5.26107106,4.4 2.68640577,0.9625 C2.30020597,1.7875 2.04273944,2.75 2.04273944,3.80875 C2.04273944,5.73375 2.9438723,7.38375 4.35993821,8.42875 C3.52317199,8.40125 2.72502575,8.15375 2.02986612,7.7275 C2.02986612,7.7275 2.02986612,7.7275 2.02986612,7.865 C2.02986612,10.615 3.83213182,12.815 6.14933059,13.31 C5.71163749,13.43375 5.26107106,13.5025 4.79763131,13.5025 C4.46292482,13.5025 4.14109166,13.46125 3.83213182,13.40625 C4.48867147,15.60625 6.40679712,17.25625 8.59526262,17.25625 C6.84449022,18.74125 4.63027806,19.635 2.22296601,19.635 C1.81101957,19.635 1.39907312,19.6075 1,19.5525 C3.26570546,21.0375 5.90473738,22 8.86560247,22 C18.3017508,22 23.4639547,13.54375 23.4639547,6.20125 C23.4639547,5.95375 23.4639547,5.72 23.4510814,5.48625 C24.4423275,4.675 25.3434604,3.7125 25.9871267,2.59875 L26,2.59875 Z" id="twitter_shape"></path>
                </g>
            </g>
        </g>
    </g>
</svg>
